<?xml version="1.0" encoding="utf-8"?>
<svg xmlns="http://www.w3.org/2000/svg" viewBox="0 0 210 380" width="210px" height="380px"><linearGradient id="SVGID_00000106848479640257841230000014140078182363826817_" gradientUnits="userSpaceOnUse" x1="105" y1="379.88983" x2="105" y2="-0.11017" gradientTransform="matrix(1 0 0 -1 0 379.88983)"><stop offset="0" style="stop-color:#2A2A2B"/><stop offset="1" style="stop-color:#171717"/></linearGradient><path fill="url(#SVGID_00000106848479640257841230000014140078182363826817_)" d="M 0 0 L 0 380 L 210 380 L 210 0 L 0 0 Z M 194.881 68.308 C 197.544 66.8 200.949 67.694 202.487 70.307 C 204.024 72.919 203.112 76.259 200.449 77.767 C 197.786 79.275 194.38 78.38 192.843 75.768 C 191.305 73.156 192.218 69.816 194.881 68.308 Z M 202.487 161.603 C 200.949 164.215 197.544 165.11 194.881 163.602 C 192.218 162.094 191.306 158.754 192.843 156.142 C 194.381 153.53 197.786 152.635 200.449 154.143 C 203.112 155.651 204.024 158.991 202.487 161.603 Z M 185.146 115.896 C 185.146 119.445 182.258 122.332 178.709 122.332 C 175.161 122.332 172.274 119.445 172.274 115.896 C 172.274 112.347 175.161 109.46 178.709 109.46 C 182.258 109.46 185.146 112.347 185.146 115.896 Z M 166.186 24.659 C 167.723 22.047 171.128 21.152 173.791 22.66 C 176.454 24.168 177.367 27.509 175.829 30.121 C 174.292 32.733 170.887 33.628 168.224 32.12 C 165.561 30.612 164.648 27.272 166.186 24.659 Z M 168.14 85.776 L 168.889 86.502 C 164.021 91.514 160.448 97.692 158.556 104.369 L 157.552 104.085 C 159.491 97.242 163.153 90.911 168.14 85.776 Z M 168.852 145.239 L 168.103 145.965 C 163.149 140.852 159.505 134.552 157.567 127.748 L 158.57 127.461 C 160.462 134.101 164.017 140.249 168.852 145.239 Z M 147.518 49.803 C 138.045 56.276 127.509 60.449 116.2 62.208 L 116.04 61.177 C 127.193 59.442 137.586 55.325 146.929 48.942 L 147.518 49.803 Z M 104.321 301.138 C 99.113 301.138 94.877 296.902 94.877 291.694 C 94.877 286.487 99.113 282.25 104.321 282.25 C 109.528 282.25 113.765 286.487 113.765 291.694 C 113.765 296.902 109.529 301.138 104.321 301.138 Z M 110.761 339.42 C 110.761 342.969 107.874 345.856 104.325 345.856 C 100.776 345.856 97.889 342.969 97.889 339.42 C 97.889 335.872 100.776 332.984 104.325 332.984 C 107.874 332.984 110.761 335.872 110.761 339.42 Z M 104.313 279.612 C 98.419 279.612 93.625 274.817 93.625 268.923 C 93.625 263.029 98.419 258.234 104.313 258.234 C 110.208 258.234 115.002 263.029 115.002 268.923 C 115.002 274.817 110.208 279.612 104.313 279.612 Z M 113.678 162.114 C 113.678 167.321 109.442 171.558 104.234 171.558 C 99.027 171.558 94.79 167.321 94.79 162.114 C 94.79 157.083 98.747 152.97 103.711 152.696 L 103.711 148.101 L 104.754 148.101 L 104.754 152.696 C 109.719 152.968 113.678 157.082 113.678 162.114 Z M 131.369 175.803 C 131.369 181.01 127.132 185.247 121.924 185.247 C 116.717 185.247 112.48 181.01 112.48 175.803 C 112.48 170.595 116.717 166.359 121.924 166.359 C 123.45 166.359 124.887 166.73 126.163 167.375 L 128.741 162.844 L 129.648 163.36 L 127.069 167.893 C 129.654 169.58 131.369 172.493 131.369 175.803 Z M 94.79 217.583 C 94.79 212.376 99.026 208.139 104.234 208.139 C 109.441 208.139 113.678 212.376 113.678 217.583 C 113.678 222.615 109.719 226.729 104.754 227.001 L 104.754 231.596 L 103.711 231.596 L 103.711 227.001 C 98.747 226.727 94.79 222.614 94.79 217.583 Z M 104.582 200.538 C 98.688 200.538 93.893 195.743 93.893 189.849 C 93.893 183.955 98.688 179.16 104.582 179.16 C 110.476 179.16 115.271 183.955 115.271 189.849 C 115.271 195.743 110.476 200.538 104.582 200.538 Z M 96.173 175.803 C 96.173 181.011 91.937 185.247 86.729 185.247 C 81.522 185.247 77.285 181.011 77.285 175.803 C 77.285 172.479 79.015 169.557 81.618 167.873 L 78.992 163.364 L 79.894 162.84 L 82.525 167.359 C 83.793 166.725 85.218 166.359 86.729 166.359 C 91.937 166.359 96.173 170.596 96.173 175.803 Z M 77.595 125.34 C 72.388 125.34 68.151 121.103 68.151 115.896 C 68.151 110.688 72.388 106.452 77.595 106.452 C 82.803 106.452 87.039 110.688 87.039 115.896 C 87.039 121.103 82.803 125.34 77.595 125.34 Z M 77.595 254.357 C 82.803 254.357 87.039 258.594 87.039 263.801 C 87.039 269.009 82.803 273.245 77.595 273.245 C 72.388 273.245 68.151 269.009 68.151 263.801 C 68.151 258.594 72.388 254.357 77.595 254.357 Z M 86.729 213.338 C 85.218 213.338 83.793 212.972 82.525 212.339 L 79.894 216.858 L 78.992 216.333 L 81.618 211.824 C 79.015 210.14 77.285 207.218 77.285 203.894 C 77.285 198.686 81.522 194.45 86.729 194.45 C 91.937 194.45 96.173 198.686 96.173 203.894 C 96.173 209.101 91.937 213.338 86.729 213.338 Z M 112.48 203.894 C 112.48 198.687 116.717 194.45 121.924 194.45 C 127.132 194.45 131.369 198.687 131.369 203.894 C 131.369 207.204 129.654 210.117 127.069 211.804 L 129.648 216.338 L 128.741 216.853 L 126.163 212.322 C 124.887 212.967 123.45 213.338 121.924 213.338 C 116.717 213.338 112.48 209.102 112.48 203.894 Z M 131.032 254.372 C 136.239 254.372 140.476 258.608 140.476 263.816 C 140.476 269.023 136.239 273.26 131.032 273.26 C 125.824 273.26 121.588 269.023 121.588 263.816 C 121.588 258.608 125.824 254.372 131.032 254.372 Z M 131.032 125.325 C 125.824 125.325 121.588 121.089 121.588 115.881 C 121.588 110.674 125.824 106.437 131.032 106.437 C 136.239 106.437 140.476 110.674 140.476 115.881 C 140.476 121.089 136.239 125.325 131.032 125.325 Z M 113.765 88.003 C 113.765 93.21 109.529 97.447 104.321 97.447 C 99.113 97.447 94.877 93.21 94.877 88.003 C 94.877 82.795 99.113 78.559 104.321 78.559 C 109.528 78.559 113.765 82.795 113.765 88.003 Z M 110.755 40.302 C 110.755 43.851 107.868 46.738 104.319 46.738 C 100.77 46.738 97.883 43.851 97.883 40.302 C 97.883 36.753 100.77 33.866 104.319 33.866 C 107.868 33.866 110.755 36.753 110.755 40.302 Z M 104.313 100.029 C 110.208 100.029 115.002 104.824 115.002 110.718 C 115.002 116.612 110.208 121.407 104.313 121.407 C 98.419 121.407 93.625 116.612 93.625 110.718 C 93.625 104.824 98.419 100.029 104.313 100.029 Z M 61.753 48.973 C 71.095 55.345 81.484 59.454 92.632 61.182 L 92.472 62.214 C 81.17 60.461 70.636 56.295 61.165 49.835 C 61.165 49.835 61.753 48.973 61.753 48.973 Z M 49.89 104.369 C 47.998 97.692 44.425 91.514 39.557 86.502 L 40.306 85.776 C 45.293 90.911 48.954 97.242 50.894 104.085 L 49.89 104.369 Z M 50.879 127.748 C 48.941 134.552 45.297 140.852 40.343 145.965 L 39.594 145.239 C 44.428 140.249 47.984 134.101 49.875 127.461 C 49.875 127.461 50.879 127.748 50.879 127.748 Z M 32.733 24.69 C 34.27 22.077 37.675 21.182 40.338 22.691 C 43.001 24.199 43.914 27.539 42.376 30.151 C 40.839 32.763 37.433 33.658 34.77 32.15 C 32.107 30.642 31.195 27.302 32.733 24.69 Z M 29.92 109.46 C 33.469 109.46 36.357 112.347 36.357 115.896 C 36.357 119.445 33.469 122.332 29.92 122.332 C 26.372 122.332 23.484 119.445 23.484 115.896 C 23.484 112.347 26.372 109.46 29.92 109.46 Z M 6.159 70.297 C 7.697 67.685 11.102 66.79 13.765 68.298 C 16.428 69.806 17.341 73.146 15.803 75.759 C 14.266 78.371 10.861 79.266 8.197 77.758 C 5.534 76.25 4.622 72.909 6.159 70.297 Z M 6.159 156.132 C 7.697 153.52 11.102 152.625 13.765 154.133 C 16.428 155.641 17.341 158.982 15.803 161.594 C 14.265 164.206 10.86 165.101 8.197 163.593 C 5.534 162.085 4.622 158.744 6.159 156.132 Z M 15.807 309.404 C 14.269 312.016 10.864 312.911 8.201 311.403 C 5.538 309.895 4.626 306.555 6.163 303.942 C 7.701 301.33 11.106 300.435 13.769 301.943 C 16.432 303.452 17.344 306.792 15.807 309.404 Z M 8.201 216.108 C 10.864 214.6 14.269 215.495 15.806 218.107 C 17.344 220.72 16.432 224.06 13.769 225.568 C 11.106 227.076 7.7 226.181 6.163 223.569 C 4.625 220.957 5.538 217.616 8.201 216.108 Z M 23.49 263.827 C 23.49 260.278 26.378 257.391 29.926 257.391 C 33.475 257.391 36.362 260.278 36.362 263.827 C 36.362 267.376 33.475 270.263 29.926 270.263 C 26.378 270.263 23.49 267.376 23.49 263.827 Z M 42.414 355.007 C 40.876 357.62 37.471 358.515 34.808 357.006 C 32.145 355.498 31.233 352.158 32.77 349.546 C 34.308 346.934 37.713 346.039 40.376 347.547 C 43.039 349.055 43.951 352.395 42.414 355.007 Z M 40.306 294.017 L 39.557 293.291 C 44.424 288.28 47.997 282.102 49.89 275.424 L 50.894 275.709 C 48.954 282.552 45.293 288.884 40.306 294.017 Z M 39.594 234.555 L 40.343 233.828 C 45.297 238.942 48.941 245.241 50.879 252.046 L 49.875 252.332 C 47.984 245.692 44.428 239.545 39.594 234.555 Z M 52.182 205.156 C 43.917 205.156 37.179 198.568 36.901 190.37 L 33.99 190.37 C 33.712 198.349 27.152 204.758 19.106 204.758 C 10.885 204.758 4.196 198.07 4.196 189.849 C 4.196 181.627 10.885 174.938 19.106 174.938 C 27.152 174.938 33.712 181.348 33.99 189.327 L 36.901 189.327 C 37.179 181.129 43.917 174.541 52.182 174.541 C 52.92 174.541 53.641 174.612 54.352 174.713 C 56.435 169.142 59.59 164.131 63.75 159.824 L 64.501 160.548 C 60.488 164.703 57.437 169.529 55.403 174.889 C 62.301 176.373 67.49 182.514 67.49 189.849 C 67.49 197.183 62.302 203.323 55.405 204.808 C 57.437 210.165 60.487 214.988 64.497 219.142 L 63.747 219.867 C 59.588 215.56 56.435 210.551 54.353 204.984 C 53.642 205.085 52.921 205.156 52.182 205.156 Z M 61.165 329.958 C 70.637 323.498 81.17 319.333 92.472 317.58 L 92.632 318.611 C 81.485 320.34 71.095 324.448 61.753 330.82 L 61.165 329.958 Z M 146.929 330.852 C 137.585 324.468 127.193 320.351 116.04 318.616 L 116.2 317.585 C 127.508 319.345 138.044 323.518 147.518 329.99 L 146.929 330.852 Z M 158.556 275.424 C 160.448 282.102 164.021 288.28 168.889 293.291 L 168.14 294.017 C 163.153 288.884 159.492 282.552 157.552 275.709 L 158.556 275.424 Z M 157.567 252.046 C 159.505 245.241 163.149 238.942 168.103 233.828 L 168.852 234.555 C 164.017 239.545 160.462 245.692 158.57 252.332 L 157.567 252.046 Z M 173.829 357.037 C 171.166 358.545 167.761 357.65 166.223 355.038 C 164.686 352.426 165.598 349.085 168.261 347.577 C 170.924 346.069 174.329 346.964 175.867 349.576 C 177.404 352.188 176.492 355.529 173.829 357.037 Z M 178.715 270.263 C 175.166 270.263 172.279 267.376 172.279 263.827 C 172.279 260.278 175.167 257.391 178.715 257.391 C 182.264 257.391 185.151 260.278 185.151 263.827 C 185.151 267.376 182.264 270.263 178.715 270.263 Z M 200.436 311.449 C 197.773 312.957 194.368 312.062 192.831 309.45 C 191.293 306.837 192.205 303.497 194.868 301.989 C 197.531 300.481 200.936 301.376 202.474 303.988 C 204.012 306.6 203.099 309.94 200.436 311.449 Z M 202.474 223.614 C 200.937 226.227 197.531 227.122 194.869 225.614 C 192.205 224.105 191.293 220.765 192.831 218.153 C 194.368 215.541 197.773 214.646 200.436 216.154 C 203.099 217.662 204.012 221.002 202.474 223.614 Z M 189.595 204.635 C 181.619 204.635 175.114 198.28 174.835 190.37 L 171.737 190.37 C 171.458 198.568 164.72 205.156 156.455 205.156 C 155.681 205.156 154.926 205.08 154.182 204.968 C 152.1 210.542 148.944 215.556 144.782 219.867 L 144.031 219.142 C 148.048 214.982 151.102 210.149 153.134 204.782 C 146.287 203.26 141.148 197.148 141.148 189.849 C 141.148 182.549 146.287 176.436 153.135 174.914 C 151.102 169.544 148.047 164.71 144.027 160.548 L 144.778 159.824 C 148.942 164.135 152.099 169.151 154.183 174.729 C 154.926 174.617 155.681 174.541 156.455 174.541 C 164.72 174.541 171.458 181.129 171.737 189.327 L 174.835 189.327 C 175.113 181.417 181.619 175.062 189.595 175.062 C 197.748 175.062 204.381 181.696 204.381 189.849 C 204.381 198.001 197.748 204.635 189.595 204.635 Z" id="object-0" transform="matrix(0.9999999999999999, 0, 0, 0.9999999999999999, 0, -7.105427357601002e-15)"/></svg>