<?xml version="1.0" encoding="utf-8"?>
<svg version="1.0" id="uuid-afea4600-5b17-4eb7-9e6b-87dd4b88129e" xmlns="http://www.w3.org/2000/svg" x="0px" y="0px" width="60px" height="380px" viewBox="0 0 60 380" enable-background="new 0 0 60 380" xmlns:bx="https://boxy-svg.com"><defs><bx:export><bx:file format="svg" href="#object-0"/><bx:file format="svg" href="#object-1" path="Untitled 2.svg"/><bx:file format="svg" path="Untitled 3.svg"/></bx:export></defs><linearGradient id="SVGID_1_" gradientUnits="userSpaceOnUse" x1="30" y1="379.88983" x2="30" y2="-0.10968" gradientTransform="matrix(1 0 0 -1 0 379.88983)"><stop offset="0" style="stop-color:#EBCB86"/><stop offset="1" style="stop-color:#C1924F"/></linearGradient><rect y="0" fill="url(#SVGID_1_)" width="60" height="379.99951" id="object-0"/><g id="object-1"><ellipse transform="matrix(0.1052 -0.99445 0.99445 0.1052 -318.84265 314.26987)" fill="#191919" cx="15.21394" cy="334.31122" rx="13.30745" ry="13.30746"/><linearGradient id="SVGID_00000044142891506046596840000017415331776982325938_" gradientUnits="userSpaceOnUse" x1="30" y1="379.88983" x2="30" y2="-0.11017" gradientTransform="matrix(1 0 0 -1 0 379.88983)"><stop offset="0" style="stop-color:#2A2A2B"/><stop offset="1" style="stop-color:#171717"/></linearGradient><path fill="url(#SVGID_00000044142891506046596840000017415331776982325938_)" d="M 0 0 L 0 380 L 60 380 L 60 0 L 0 0 Z M 57.034 155.102 L 56.559 155.158 L 56.546 155.158 C 56.504 155.158 56.483 155.135 56.483 155.09 L 56.533 154.551 C 56.537 154.51 56.561 154.48 56.603 154.463 L 57.121 154.257 C 57.155 154.244 57.186 154.238 57.216 154.238 L 57.947 154.238 C 57.994 154.238 58.017 154.263 58.017 154.313 L 57.497 158.544 C 57.493 158.566 57.484 158.583 57.469 158.597 C 57.454 158.613 57.437 158.62 57.416 158.62 L 56.702 158.62 C 56.681 158.62 56.665 158.613 56.653 158.597 C 56.639 158.583 56.635 158.566 56.639 158.544 L 57.059 155.127 C 57.059 155.11 57.051 155.102 57.034 155.102 Z M 53.703 236.725 L 54.041 236.725 C 54.062 236.725 54.078 236.732 54.091 236.746 C 54.104 236.761 54.108 236.779 54.104 236.8 L 54.048 237.27 C 54.043 237.29 54.033 237.307 54.019 237.323 C 54.005 237.337 53.986 237.344 53.966 237.344 L 53.622 237.344 C 53.614 237.344 53.606 237.347 53.599 237.353 C 53.593 237.36 53.59 237.368 53.59 237.376 L 53.409 238.865 C 53.405 238.887 53.403 238.915 53.403 238.953 C 53.403 239.04 53.422 239.102 53.462 239.134 C 53.501 239.168 53.56 239.183 53.634 239.178 L 53.678 239.178 C 53.699 239.178 53.715 239.186 53.728 239.2 C 53.741 239.215 53.745 239.233 53.741 239.253 L 53.665 239.867 C 53.661 239.888 53.652 239.905 53.637 239.92 C 53.623 239.935 53.605 239.942 53.584 239.942 L 53.339 239.942 C 53.073 239.942 52.871 239.901 52.733 239.82 C 52.595 239.738 52.526 239.586 52.526 239.36 C 52.526 239.331 52.531 239.279 52.539 239.203 L 52.764 237.376 C 52.764 237.355 52.756 237.344 52.739 237.344 L 52.539 237.344 C 52.518 237.344 52.501 237.337 52.489 237.323 C 52.477 237.307 52.471 237.29 52.477 237.27 L 52.533 236.8 C 52.537 236.779 52.546 236.761 52.561 236.746 C 52.575 236.732 52.593 236.725 52.614 236.725 L 52.814 236.725 C 52.835 236.725 52.845 236.715 52.845 236.693 L 52.933 235.998 C 52.937 235.978 52.946 235.96 52.961 235.945 C 52.976 235.931 52.993 235.924 53.014 235.924 L 53.697 235.924 C 53.717 235.924 53.735 235.931 53.747 235.945 C 53.759 235.96 53.763 235.978 53.759 235.998 L 53.672 236.693 C 53.672 236.715 53.682 236.725 53.703 236.725 Z M 53.474 320.458 C 53.514 320.491 53.572 320.506 53.646 320.501 L 53.69 320.501 C 53.711 320.501 53.728 320.509 53.74 320.524 C 53.753 320.538 53.757 320.556 53.753 320.577 L 53.678 321.19 C 53.674 321.211 53.664 321.229 53.649 321.243 C 53.635 321.258 53.618 321.265 53.596 321.265 L 53.352 321.265 C 53.085 321.265 52.883 321.225 52.746 321.143 C 52.607 321.062 52.539 320.909 52.539 320.684 C 52.539 320.654 52.543 320.602 52.551 320.527 L 52.776 318.699 C 52.776 318.679 52.768 318.668 52.752 318.668 L 52.551 318.668 C 52.531 318.668 52.513 318.66 52.501 318.646 C 52.489 318.631 52.484 318.614 52.489 318.593 L 52.545 318.123 C 52.549 318.102 52.558 318.085 52.573 318.069 C 52.588 318.055 52.605 318.048 52.626 318.048 L 52.826 318.048 C 52.847 318.048 52.858 318.038 52.858 318.016 L 52.945 317.322 C 52.949 317.301 52.958 317.283 52.974 317.269 C 52.988 317.254 53.005 317.247 53.027 317.247 L 53.709 317.247 C 53.73 317.247 53.747 317.254 53.759 317.269 C 53.771 317.283 53.776 317.301 53.771 317.322 L 53.684 318.016 C 53.684 318.038 53.694 318.048 53.715 318.048 L 54.054 318.048 C 54.074 318.048 54.09 318.055 54.104 318.069 C 54.116 318.085 54.12 318.102 54.116 318.123 L 54.06 318.593 C 54.056 318.614 54.046 318.631 54.031 318.646 C 54.017 318.66 53.999 318.668 53.978 318.668 L 53.634 318.668 C 53.626 318.668 53.619 318.671 53.612 318.677 C 53.605 318.684 53.602 318.691 53.602 318.699 L 53.421 320.189 C 53.417 320.21 53.415 320.238 53.415 320.276 C 53.415 320.364 53.434 320.425 53.474 320.458 Z M 50.605 157.731 L 50.881 155.478 C 50.885 155.456 50.894 155.439 50.909 155.424 C 50.924 155.41 50.941 155.402 50.963 155.402 L 51.676 155.402 C 51.697 155.402 51.714 155.41 51.726 155.424 C 51.739 155.439 51.743 155.456 51.739 155.478 L 51.488 157.537 C 51.484 157.558 51.482 157.589 51.482 157.63 C 51.482 157.722 51.502 157.792 51.541 157.84 C 51.581 157.888 51.638 157.913 51.714 157.913 C 51.805 157.913 51.881 157.877 51.939 157.806 C 51.997 157.735 52.034 157.64 52.052 157.518 L 52.301 155.478 C 52.306 155.456 52.316 155.439 52.33 155.424 C 52.344 155.41 52.362 155.402 52.383 155.402 L 53.097 155.402 C 53.117 155.402 53.135 155.41 53.147 155.424 C 53.159 155.439 53.163 155.456 53.159 155.478 L 52.784 158.544 C 52.779 158.566 52.77 158.583 52.756 158.597 C 52.741 158.613 52.723 158.62 52.703 158.62 L 51.989 158.62 C 51.968 158.62 51.951 158.613 51.939 158.597 C 51.926 158.583 51.922 158.566 51.926 158.544 L 51.939 158.438 C 51.943 158.426 51.941 158.417 51.933 158.413 C 51.924 158.409 51.916 158.413 51.907 158.426 C 51.774 158.584 51.582 158.664 51.331 158.664 C 51.114 158.664 50.937 158.602 50.8 158.479 C 50.662 158.356 50.593 158.167 50.593 157.913 C 50.593 157.875 50.597 157.815 50.605 157.731 Z M 47.776 157.431 L 48.02 155.428 C 48.066 155.052 48.214 154.751 48.465 154.526 C 48.715 154.301 49.026 154.188 49.398 154.188 C 49.735 154.188 50.002 154.281 50.199 154.466 C 50.395 154.653 50.493 154.906 50.493 155.227 C 50.493 155.269 50.489 155.336 50.481 155.428 L 50.236 157.431 C 50.19 157.806 50.041 158.106 49.789 158.331 C 49.536 158.558 49.225 158.67 48.853 158.67 C 48.515 158.67 48.249 158.577 48.055 158.392 C 47.86 158.206 47.764 157.952 47.764 157.63 C 47.764 157.589 47.768 157.522 47.776 157.431 Z M 46.843 238.753 L 47.087 236.75 C 47.133 236.374 47.281 236.074 47.531 235.849 C 47.782 235.623 48.093 235.51 48.465 235.51 C 48.802 235.51 49.069 235.603 49.265 235.788 C 49.462 235.975 49.56 236.229 49.56 236.549 C 49.56 236.591 49.556 236.658 49.548 236.75 L 49.303 238.753 C 49.257 239.128 49.107 239.429 48.856 239.654 C 48.603 239.88 48.291 239.992 47.92 239.992 C 47.581 239.992 47.315 239.899 47.122 239.714 C 46.927 239.528 46.83 239.275 46.83 238.953 C 46.83 238.911 46.835 238.845 46.843 238.753 Z M 16.102 41.914 L 29.409 41.914 L 29.409 42.957 L 16.102 42.957 C 16.102 42.957 16.102 41.914 16.102 41.914 Z M 9.092 31.632 L 10.831 31.632 L 10.831 29.894 L 11.614 29.894 L 11.614 31.632 L 13.352 31.632 L 13.352 32.414 L 11.614 32.414 L 11.614 34.152 L 10.831 34.152 L 10.831 32.414 L 9.092 32.414 L 9.092 31.632 Z M 11.577 60.012 L 11.577 61.431 L 10.794 61.431 L 10.794 60.012 L 9.374 60.012 L 9.374 59.23 L 10.794 59.23 L 10.794 57.81 L 11.577 57.81 L 11.577 59.23 L 12.996 59.23 L 12.996 60.012 L 11.577 60.012 Z M 12.674 62.504 L 12.674 63.286 L 9.697 63.286 L 9.697 62.504 L 12.674 62.504 Z M 4.735 73.241 C 4.735 73.195 4.759 73.172 4.809 73.172 L 5.591 73.172 C 5.637 73.172 5.661 73.195 5.661 73.241 L 5.742 75.995 C 5.742 76.012 5.747 76.02 5.757 76.02 C 5.768 76.02 5.775 76.012 5.78 75.995 L 6.525 73.241 C 6.537 73.195 6.566 73.172 6.612 73.172 L 7.369 73.172 C 7.419 73.172 7.436 73.199 7.419 73.253 L 6.023 77.484 C 6.011 77.531 5.982 77.553 5.936 77.553 L 5.153 77.553 C 5.107 77.553 5.085 77.531 5.085 77.484 L 4.735 73.253 C 4.735 73.253 4.735 73.241 4.735 73.241 Z M 1.736 76.433 C 1.745 76.383 1.772 76.357 1.818 76.357 L 2.525 76.357 C 2.571 76.357 2.594 76.383 2.594 76.433 L 2.594 76.534 C 2.606 76.742 2.69 76.846 2.844 76.846 C 2.923 76.846 2.992 76.818 3.051 76.762 C 3.109 76.705 3.152 76.627 3.182 76.527 C 3.207 76.419 3.226 76.303 3.238 76.182 C 3.251 76.104 3.257 75.997 3.257 75.863 C 3.245 75.668 3.16 75.569 3.001 75.569 C 2.842 75.569 2.734 75.642 2.675 75.788 C 2.654 75.835 2.625 75.857 2.587 75.857 L 1.874 75.857 C 1.828 75.857 1.805 75.832 1.805 75.782 L 2.118 73.247 C 2.122 73.226 2.132 73.208 2.146 73.194 C 2.161 73.179 2.178 73.172 2.2 73.172 L 4.346 73.172 C 4.367 73.172 4.384 73.179 4.396 73.194 C 4.409 73.208 4.413 73.226 4.409 73.247 L 4.334 73.854 C 4.33 73.875 4.32 73.893 4.306 73.907 C 4.291 73.923 4.273 73.93 4.253 73.93 L 2.919 73.93 C 2.899 73.93 2.888 73.94 2.888 73.96 L 2.756 75.013 C 2.756 75.025 2.759 75.033 2.766 75.037 C 2.772 75.041 2.782 75.037 2.794 75.025 C 2.869 74.954 2.956 74.9 3.054 74.862 C 3.151 74.824 3.253 74.806 3.357 74.806 C 3.616 74.806 3.814 74.893 3.949 75.069 C 4.085 75.244 4.142 75.487 4.121 75.801 C 4.121 75.835 4.119 75.89 4.115 75.966 C 4.11 76.044 4.104 76.118 4.096 76.189 C 4.075 76.355 4.052 76.488 4.028 76.584 C 3.973 76.905 3.833 77.155 3.608 77.334 C 3.383 77.514 3.096 77.603 2.75 77.603 C 2.425 77.603 2.173 77.52 1.996 77.353 C 1.819 77.187 1.73 76.938 1.73 76.608 C 1.73 76.608 1.736 76.433 1.736 76.433 Z M 15.214 75.992 C 18.517 75.992 21.554 77.125 23.982 79.007 L 26.448 76.045 C 25.582 75.152 25.042 73.939 25.042 72.599 C 25.042 69.865 27.266 67.641 30 67.641 C 31.009 67.641 31.946 67.948 32.729 68.467 C 36.348 63.948 38.35 58.305 38.35 52.507 L 38.35 51.899 L 39.393 51.899 L 39.393 52.507 C 39.393 58.547 37.307 64.425 33.533 69.131 C 34.412 70.026 34.957 71.249 34.957 72.599 C 34.957 73.939 34.418 75.152 33.55 76.046 L 37.656 81.029 L 36.856 81.697 L 32.753 76.717 C 31.964 77.246 31.018 77.556 30 77.556 C 28.981 77.556 28.034 77.246 27.246 76.717 L 24.781 79.677 C 27.709 82.306 29.565 86.107 29.565 90.342 C 29.565 98.255 23.127 104.693 15.214 104.693 C 7.301 104.693 0.863 98.255 0.863 90.342 C 0.863 82.429 7.301 75.992 15.214 75.992 Z M 29.409 123.237 L 29.409 124.28 L 16.102 124.28 L 16.102 123.237 L 29.409 123.237 Z M 11.577 141.335 L 11.577 142.754 L 10.794 142.754 L 10.794 141.335 L 9.374 141.335 L 9.374 140.553 L 10.794 140.553 L 10.794 139.133 L 11.577 139.133 L 11.577 140.553 L 12.996 140.553 L 12.996 141.335 L 11.577 141.335 Z M 12.674 143.827 L 12.674 144.609 L 9.697 144.609 L 9.697 143.827 L 12.674 143.827 Z M 11.614 113.737 L 11.614 115.475 L 10.831 115.475 L 10.831 113.737 L 9.092 113.737 L 9.092 112.955 L 10.831 112.955 L 10.831 111.217 L 11.614 111.217 L 11.614 112.955 L 13.352 112.955 L 13.352 113.737 L 11.614 113.737 Z M 7.419 154.576 L 6.023 158.807 C 6.011 158.854 5.982 158.876 5.936 158.876 L 5.153 158.876 C 5.107 158.876 5.085 158.854 5.085 158.807 L 4.735 154.576 L 4.735 154.564 C 4.735 154.518 4.759 154.495 4.809 154.495 L 5.591 154.495 C 5.637 154.495 5.661 154.518 5.661 154.564 L 5.742 157.318 C 5.742 157.335 5.747 157.343 5.757 157.343 C 5.768 157.343 5.775 157.335 5.78 157.318 L 6.525 154.564 C 6.537 154.518 6.566 154.495 6.612 154.495 L 7.369 154.495 C 7.419 154.495 7.436 154.522 7.419 154.576 Z M 2.766 156.36 C 2.772 156.364 2.782 156.36 2.794 156.348 C 2.869 156.277 2.956 156.223 3.054 156.185 C 3.151 156.147 3.253 156.129 3.357 156.129 C 3.616 156.129 3.814 156.216 3.949 156.392 C 4.085 156.567 4.142 156.81 4.121 157.124 C 4.121 157.158 4.119 157.213 4.115 157.289 C 4.11 157.367 4.104 157.441 4.096 157.512 C 4.075 157.678 4.052 157.811 4.028 157.907 C 3.973 158.227 3.833 158.478 3.608 158.657 C 3.383 158.837 3.096 158.926 2.75 158.926 C 2.425 158.926 2.173 158.843 1.996 158.676 C 1.819 158.51 1.73 158.261 1.73 157.931 L 1.736 157.756 C 1.745 157.706 1.772 157.68 1.818 157.68 L 2.525 157.68 C 2.571 157.68 2.594 157.706 2.594 157.756 L 2.594 157.857 C 2.606 158.064 2.69 158.169 2.844 158.169 C 2.923 158.169 2.992 158.141 3.051 158.085 C 3.109 158.028 3.152 157.95 3.182 157.85 C 3.207 157.742 3.226 157.626 3.238 157.505 C 3.251 157.427 3.257 157.32 3.257 157.186 C 3.245 156.991 3.16 156.892 3.001 156.892 C 2.842 156.892 2.734 156.965 2.675 157.111 C 2.654 157.158 2.625 157.18 2.587 157.18 L 1.874 157.18 C 1.828 157.18 1.805 157.155 1.805 157.105 L 2.118 154.57 C 2.122 154.549 2.132 154.531 2.146 154.517 C 2.161 154.502 2.178 154.495 2.2 154.495 L 4.346 154.495 C 4.367 154.495 4.384 154.502 4.396 154.517 C 4.409 154.531 4.413 154.549 4.409 154.57 L 4.334 155.177 C 4.33 155.198 4.32 155.216 4.306 155.23 C 4.291 155.246 4.273 155.253 4.253 155.253 L 2.919 155.253 C 2.899 155.253 2.888 155.263 2.888 155.283 L 2.756 156.336 C 2.756 156.348 2.759 156.356 2.766 156.36 Z M 15.214 157.315 C 18.517 157.315 21.554 158.448 23.982 160.33 L 26.448 157.368 C 25.582 156.475 25.042 155.262 25.042 153.922 C 25.042 151.188 27.266 148.964 30 148.964 C 31.009 148.964 31.946 149.271 32.729 149.79 C 36.348 145.271 38.35 139.628 38.35 133.83 L 38.35 133.222 L 39.393 133.222 L 39.393 133.83 C 39.393 139.87 37.307 145.748 33.533 150.454 C 34.412 151.349 34.957 152.572 34.957 153.922 C 34.957 155.262 34.418 156.475 33.55 157.369 L 37.674 162.269 L 36.874 162.938 L 32.753 158.04 C 31.964 158.569 31.018 158.879 30 158.879 C 28.981 158.879 28.034 158.569 27.246 158.04 L 24.781 161 C 27.709 163.629 29.565 167.43 29.565 171.665 C 29.565 179.578 23.127 186.016 15.214 186.016 C 7.301 186.016 0.863 179.578 0.863 171.665 C 0.863 163.752 7.301 157.315 15.214 157.315 Z M 29.409 204.56 L 29.409 205.603 L 16.102 205.603 L 16.102 204.56 L 29.409 204.56 Z M 11.577 222.658 L 11.577 224.077 L 10.794 224.077 L 10.794 222.658 L 9.374 222.658 L 9.374 221.876 L 10.794 221.876 L 10.794 220.456 L 11.577 220.456 L 11.577 221.876 L 12.996 221.876 L 12.996 222.658 L 11.577 222.658 Z M 12.674 225.15 L 12.674 225.932 L 9.697 225.932 L 9.697 225.15 L 12.674 225.15 Z M 11.614 195.06 L 11.614 196.798 L 10.831 196.798 L 10.831 195.06 L 9.092 195.06 L 9.092 194.278 L 10.831 194.278 L 10.831 192.54 L 11.614 192.54 L 11.614 194.278 L 13.352 194.278 L 13.352 195.06 L 11.614 195.06 Z M 7.419 235.899 L 6.023 240.13 C 6.011 240.177 5.982 240.199 5.936 240.199 L 5.153 240.199 C 5.107 240.199 5.085 240.177 5.085 240.13 L 4.735 235.899 L 4.735 235.887 C 4.735 235.841 4.759 235.818 4.809 235.818 L 5.591 235.818 C 5.637 235.818 5.661 235.841 5.661 235.887 L 5.742 238.641 C 5.742 238.658 5.747 238.666 5.757 238.666 C 5.768 238.666 5.775 238.658 5.78 238.641 L 6.525 235.887 C 6.537 235.841 6.566 235.818 6.612 235.818 L 7.369 235.818 C 7.419 235.818 7.436 235.845 7.419 235.899 Z M 2.766 237.683 C 2.772 237.687 2.782 237.683 2.794 237.671 C 2.869 237.599 2.956 237.545 3.054 237.508 C 3.151 237.47 3.253 237.452 3.357 237.452 C 3.616 237.452 3.814 237.539 3.949 237.715 C 4.085 237.89 4.142 238.133 4.121 238.447 C 4.121 238.481 4.119 238.536 4.115 238.612 C 4.11 238.69 4.104 238.764 4.096 238.835 C 4.075 239.001 4.052 239.134 4.028 239.23 C 3.973 239.55 3.833 239.801 3.608 239.98 C 3.383 240.16 3.096 240.249 2.75 240.249 C 2.425 240.249 2.173 240.166 1.996 239.999 C 1.819 239.833 1.73 239.584 1.73 239.254 L 1.736 239.079 C 1.745 239.029 1.772 239.003 1.818 239.003 L 2.525 239.003 C 2.571 239.003 2.594 239.029 2.594 239.079 L 2.594 239.18 C 2.606 239.387 2.69 239.492 2.844 239.492 C 2.923 239.492 2.992 239.464 3.051 239.408 C 3.109 239.351 3.152 239.273 3.182 239.172 C 3.207 239.064 3.226 238.949 3.238 238.828 C 3.251 238.75 3.257 238.643 3.257 238.509 C 3.245 238.314 3.16 238.215 3.001 238.215 C 2.842 238.215 2.734 238.288 2.675 238.434 C 2.654 238.481 2.625 238.503 2.587 238.503 L 1.874 238.503 C 1.828 238.503 1.805 238.478 1.805 238.428 L 2.118 235.893 C 2.122 235.872 2.132 235.854 2.146 235.84 C 2.161 235.825 2.178 235.818 2.2 235.818 L 4.346 235.818 C 4.367 235.818 4.384 235.825 4.396 235.84 C 4.409 235.854 4.413 235.872 4.409 235.893 L 4.334 236.5 C 4.33 236.521 4.32 236.539 4.306 236.553 C 4.291 236.568 4.273 236.576 4.253 236.576 L 2.919 236.576 C 2.899 236.576 2.888 236.586 2.888 236.606 L 2.756 237.659 C 2.756 237.671 2.759 237.679 2.766 237.683 Z M 15.214 238.638 C 18.517 238.638 21.554 239.77 23.982 241.653 L 26.448 238.691 C 25.582 237.797 25.042 236.584 25.042 235.245 C 25.042 232.511 27.266 230.287 30 230.287 C 31.009 230.287 31.946 230.594 32.729 231.113 C 36.348 226.594 38.35 220.951 38.35 215.153 L 38.35 214.545 L 39.393 214.545 L 39.393 215.153 C 39.393 221.193 37.307 227.071 33.533 231.777 C 34.412 232.672 34.957 233.895 34.957 235.245 C 34.957 236.585 34.418 237.798 33.55 238.692 L 37.686 243.642 L 36.885 244.31 L 32.753 239.363 C 31.964 239.892 31.018 240.202 30 240.202 C 28.981 240.202 28.034 239.892 27.246 239.363 L 24.781 242.323 C 27.709 244.952 29.565 248.753 29.565 252.988 C 29.565 260.901 23.127 267.339 15.214 267.339 C 7.301 267.339 0.863 260.901 0.863 252.988 C 0.863 245.075 7.301 238.638 15.214 238.638 Z M 29.409 285.883 L 29.409 286.926 L 16.102 286.926 L 16.102 285.883 L 29.409 285.883 Z M 11.577 303.981 L 11.577 305.4 L 10.794 305.4 L 10.794 303.981 L 9.374 303.981 L 9.374 303.199 L 10.794 303.199 L 10.794 301.779 L 11.577 301.779 L 11.577 303.199 L 12.996 303.199 L 12.996 303.981 L 11.577 303.981 Z M 12.674 306.473 L 12.674 307.255 L 9.697 307.255 L 9.697 306.473 L 12.674 306.473 Z M 11.614 276.383 L 11.614 278.121 L 10.831 278.121 L 10.831 276.383 L 9.092 276.383 L 9.092 275.601 L 10.831 275.601 L 10.831 273.863 L 11.614 273.863 L 11.614 275.601 L 13.352 275.601 L 13.352 276.383 L 11.614 276.383 Z M 7.419 317.222 L 6.023 321.453 C 6.011 321.5 5.982 321.522 5.936 321.522 L 5.153 321.522 C 5.107 321.522 5.085 321.5 5.085 321.453 L 4.735 317.222 L 4.735 317.21 C 4.735 317.164 4.759 317.141 4.809 317.141 L 5.591 317.141 C 5.637 317.141 5.661 317.164 5.661 317.21 L 5.742 319.964 C 5.742 319.981 5.747 319.989 5.757 319.989 C 5.768 319.989 5.775 319.981 5.78 319.964 L 6.525 317.21 C 6.537 317.164 6.566 317.141 6.612 317.141 L 7.369 317.141 C 7.419 317.141 7.436 317.168 7.419 317.222 Z M 2.766 319.006 C 2.772 319.01 2.782 319.006 2.794 318.994 C 2.869 318.922 2.956 318.868 3.054 318.831 C 3.151 318.793 3.253 318.775 3.357 318.775 C 3.616 318.775 3.814 318.862 3.949 319.038 C 4.085 319.213 4.142 319.456 4.121 319.77 C 4.121 319.804 4.119 319.859 4.115 319.935 C 4.11 320.013 4.104 320.087 4.096 320.158 C 4.075 320.324 4.052 320.457 4.028 320.552 C 3.973 320.873 3.833 321.124 3.608 321.303 C 3.383 321.483 3.096 321.572 2.75 321.572 C 2.425 321.572 2.173 321.489 1.996 321.322 C 1.819 321.156 1.73 320.907 1.73 320.577 L 1.736 320.402 C 1.745 320.352 1.772 320.326 1.818 320.326 L 2.525 320.326 C 2.571 320.326 2.594 320.352 2.594 320.402 L 2.594 320.503 C 2.606 320.71 2.69 320.815 2.844 320.815 C 2.923 320.815 2.992 320.787 3.051 320.731 C 3.109 320.674 3.152 320.596 3.182 320.495 C 3.207 320.387 3.226 320.272 3.238 320.151 C 3.251 320.073 3.257 319.966 3.257 319.832 C 3.245 319.637 3.16 319.538 3.001 319.538 C 2.842 319.538 2.734 319.611 2.675 319.757 C 2.654 319.804 2.625 319.826 2.587 319.826 L 1.874 319.826 C 1.828 319.826 1.805 319.801 1.805 319.751 L 2.118 317.216 C 2.122 317.195 2.132 317.177 2.146 317.163 C 2.161 317.148 2.178 317.141 2.2 317.141 L 4.346 317.141 C 4.367 317.141 4.384 317.148 4.396 317.163 C 4.409 317.177 4.413 317.195 4.409 317.216 L 4.334 317.823 C 4.33 317.844 4.32 317.862 4.306 317.876 C 4.291 317.891 4.273 317.899 4.253 317.899 L 2.919 317.899 C 2.899 317.899 2.888 317.909 2.888 317.929 L 2.756 318.982 C 2.756 318.994 2.759 319.002 2.766 319.006 Z M 15.214 348.662 C 7.301 348.662 0.863 342.224 0.863 334.311 C 0.863 326.398 7.301 319.961 15.214 319.961 C 18.517 319.961 21.554 321.094 23.982 322.976 L 26.448 320.013 C 25.582 319.12 25.042 317.907 25.042 316.568 C 25.042 313.834 27.266 311.61 30 311.61 C 31.009 311.61 31.946 311.917 32.729 312.436 C 36.348 307.917 38.35 302.274 38.35 296.476 L 38.35 295.868 L 39.393 295.868 L 39.393 296.476 C 39.393 302.516 37.307 308.394 33.533 313.1 C 34.412 313.995 34.957 315.218 34.957 316.568 C 34.957 317.908 34.418 319.121 33.55 320.014 L 37.847 325.147 L 37.047 325.816 L 32.753 320.686 C 31.964 321.215 31.018 321.525 30 321.525 C 28.981 321.525 28.034 321.215 27.246 320.686 L 24.781 323.645 C 27.709 326.275 29.565 330.076 29.565 334.311 C 29.565 342.224 23.127 348.662 15.214 348.662 Z M 49.56 318.074 L 49.315 320.076 C 49.269 320.451 49.12 320.752 48.868 320.977 C 48.615 321.203 48.304 321.315 47.932 321.315 C 47.594 321.315 47.328 321.223 47.134 321.037 C 46.939 320.852 46.843 320.598 46.843 320.276 C 46.843 320.234 46.847 320.168 46.855 320.076 L 47.099 318.074 C 47.145 317.698 47.293 317.397 47.544 317.172 C 47.794 316.947 48.105 316.834 48.477 316.834 C 48.814 316.834 49.081 316.926 49.278 317.112 C 49.474 317.298 49.572 317.552 49.572 317.873 C 49.572 317.915 49.568 317.982 49.56 318.074 Z M 49.672 239.054 L 49.948 236.8 C 49.952 236.779 49.961 236.761 49.975 236.746 C 49.991 236.732 50.008 236.725 50.029 236.725 L 50.743 236.725 C 50.764 236.725 50.78 236.732 50.793 236.746 C 50.806 236.761 50.81 236.779 50.806 236.8 L 50.555 238.859 C 50.551 238.88 50.549 238.911 50.549 238.953 C 50.549 239.044 50.568 239.115 50.608 239.163 C 50.648 239.211 50.705 239.235 50.78 239.235 C 50.872 239.235 50.947 239.199 51.005 239.128 C 51.063 239.058 51.101 238.962 51.119 238.841 L 51.368 236.8 C 51.373 236.779 51.382 236.761 51.397 236.746 C 51.411 236.732 51.429 236.725 51.45 236.725 L 52.164 236.725 C 52.184 236.725 52.201 236.732 52.214 236.746 C 52.226 236.761 52.23 236.779 52.226 236.8 L 51.851 239.867 C 51.846 239.888 51.837 239.905 51.823 239.92 C 51.808 239.935 51.79 239.942 51.77 239.942 L 51.055 239.942 C 51.035 239.942 51.018 239.935 51.005 239.92 C 50.993 239.905 50.989 239.888 50.993 239.867 L 51.005 239.761 C 51.01 239.748 51.007 239.739 50.999 239.735 C 50.991 239.731 50.983 239.735 50.974 239.748 C 50.84 239.906 50.649 239.986 50.398 239.986 C 50.181 239.986 50.004 239.925 49.866 239.801 C 49.729 239.678 49.66 239.49 49.66 239.235 C 49.66 239.197 49.664 239.137 49.672 239.054 Z M 49.684 320.377 L 49.96 318.123 C 49.964 318.102 49.973 318.085 49.988 318.069 C 50.003 318.055 50.02 318.048 50.042 318.048 L 50.755 318.048 C 50.776 318.048 50.792 318.055 50.805 318.069 C 50.818 318.085 50.822 318.102 50.818 318.123 L 50.567 320.182 C 50.563 320.204 50.561 320.234 50.561 320.276 C 50.561 320.368 50.581 320.438 50.62 320.486 C 50.66 320.534 50.717 320.558 50.792 320.558 C 50.884 320.558 50.96 320.523 51.018 320.451 C 51.076 320.381 51.113 320.285 51.131 320.164 L 51.38 318.123 C 51.385 318.102 51.395 318.085 51.409 318.069 C 51.423 318.055 51.441 318.048 51.462 318.048 L 52.176 318.048 C 52.196 318.048 52.214 318.055 52.226 318.069 C 52.238 318.085 52.242 318.102 52.238 318.123 L 51.863 321.19 C 51.858 321.211 51.849 321.229 51.835 321.243 C 51.82 321.258 51.802 321.265 51.782 321.265 L 51.068 321.265 C 51.047 321.265 51.03 321.258 51.018 321.243 C 51.005 321.229 51.001 321.211 51.005 321.19 L 51.018 321.084 C 51.022 321.072 51.02 321.063 51.012 321.059 C 51.003 321.055 50.995 321.059 50.986 321.072 C 50.853 321.23 50.661 321.309 50.41 321.309 C 50.193 321.309 50.016 321.248 49.879 321.125 C 49.741 321.002 49.672 320.813 49.672 320.558 C 49.672 320.521 49.676 320.461 49.684 320.377 Z M 54.981 155.947 C 54.977 155.968 54.966 155.985 54.952 156 C 54.938 156.015 54.92 156.022 54.899 156.022 L 54.555 156.022 C 54.547 156.022 54.54 156.025 54.532 156.031 C 54.526 156.038 54.523 156.045 54.523 156.053 L 54.342 157.543 C 54.338 157.564 54.336 157.593 54.336 157.63 C 54.336 157.718 54.355 157.779 54.395 157.812 C 54.435 157.845 54.493 157.861 54.567 157.856 L 54.611 157.856 C 54.632 157.856 54.649 157.864 54.661 157.878 C 54.674 157.892 54.678 157.911 54.674 157.931 L 54.599 158.544 C 54.595 158.566 54.585 158.583 54.57 158.597 C 54.556 158.613 54.539 158.62 54.517 158.62 L 54.273 158.62 C 54.006 158.62 53.804 158.579 53.666 158.497 C 53.528 158.416 53.46 158.263 53.46 158.038 C 53.46 158.008 53.464 157.957 53.472 157.881 L 53.697 156.053 C 53.697 156.033 53.689 156.022 53.673 156.022 L 53.472 156.022 C 53.452 156.022 53.434 156.015 53.422 156 C 53.41 155.985 53.405 155.968 53.41 155.947 L 53.466 155.478 C 53.47 155.456 53.479 155.439 53.494 155.424 C 53.509 155.41 53.526 155.402 53.547 155.402 L 53.747 155.402 C 53.768 155.402 53.779 155.392 53.779 155.371 L 53.866 154.676 C 53.87 154.656 53.879 154.637 53.895 154.623 C 53.909 154.609 53.926 154.602 53.948 154.602 L 54.63 154.602 C 54.651 154.602 54.668 154.609 54.68 154.623 C 54.692 154.637 54.696 154.656 54.692 154.676 L 54.605 155.371 C 54.605 155.392 54.615 155.402 54.636 155.402 L 54.975 155.402 C 54.995 155.402 55.011 155.41 55.025 155.424 C 55.037 155.439 55.041 155.456 55.037 155.478 L 54.981 155.947 Z M 55.23 239.92 C 55.218 239.905 55.214 239.888 55.218 239.867 L 55.3 239.235 C 55.3 239.201 55.312 239.17 55.337 239.141 C 55.467 238.986 55.598 238.837 55.732 238.69 C 56.153 238.21 56.452 237.854 56.627 237.62 C 56.923 237.211 57.071 236.872 57.071 236.606 C 57.071 236.498 57.048 236.414 57.002 236.355 C 56.956 236.297 56.894 236.267 56.815 236.267 C 56.719 236.267 56.638 236.306 56.573 236.383 C 56.509 236.461 56.472 236.56 56.464 236.681 L 56.432 236.938 C 56.428 236.958 56.418 236.976 56.401 236.991 C 56.385 237.006 56.366 237.013 56.345 237.013 L 55.626 237.013 C 55.604 237.013 55.588 237.006 55.575 236.991 C 55.562 236.976 55.558 236.958 55.562 236.938 L 55.6 236.643 C 55.658 236.301 55.811 236.027 56.057 235.82 C 56.303 235.613 56.6 235.51 56.946 235.51 C 57.251 235.51 57.493 235.602 57.675 235.785 C 57.857 235.97 57.947 236.215 57.947 236.524 C 57.947 236.562 57.943 236.627 57.935 236.719 C 57.906 236.936 57.846 237.141 57.753 237.335 C 57.661 237.529 57.528 237.74 57.352 237.971 C 57.161 238.212 56.929 238.483 56.658 238.784 C 56.608 238.847 56.556 238.907 56.502 238.966 C 56.447 239.024 56.393 239.084 56.339 239.147 C 56.331 239.156 56.329 239.164 56.333 239.172 C 56.337 239.181 56.343 239.185 56.351 239.185 L 57.621 239.185 C 57.643 239.185 57.659 239.192 57.672 239.206 C 57.685 239.221 57.689 239.239 57.685 239.259 L 57.609 239.867 C 57.609 239.888 57.601 239.905 57.585 239.92 C 57.567 239.935 57.549 239.942 57.528 239.942 L 55.281 239.942 C 55.26 239.942 55.244 239.935 55.23 239.92 Z M 57.96 317.585 C 57.956 317.614 57.941 317.646 57.916 317.678 L 57.127 318.562 C 57.11 318.586 57.112 318.599 57.133 318.599 C 57.309 318.616 57.448 318.699 57.553 318.849 C 57.657 319 57.709 319.187 57.709 319.412 C 57.709 319.575 57.701 319.73 57.685 319.876 C 57.655 320.076 57.628 320.232 57.603 320.345 C 57.532 320.646 57.389 320.882 57.174 321.056 C 56.959 321.229 56.691 321.315 56.369 321.315 C 56.036 321.315 55.775 321.224 55.587 321.04 C 55.399 320.857 55.316 320.612 55.337 320.308 C 55.337 320.232 55.345 320.111 55.362 319.945 C 55.37 319.894 55.397 319.87 55.443 319.87 L 56.15 319.87 C 56.205 319.87 56.228 319.894 56.22 319.945 C 56.207 320.037 56.2 320.126 56.2 320.214 C 56.2 320.322 56.224 320.407 56.269 320.468 C 56.315 320.528 56.381 320.558 56.464 320.558 C 56.543 320.558 56.613 320.529 56.673 320.471 C 56.734 320.412 56.779 320.333 56.807 320.232 C 56.821 320.17 56.845 320.019 56.883 319.782 C 56.904 319.585 56.912 319.432 56.908 319.319 C 56.904 319.227 56.879 319.153 56.833 319.099 C 56.787 319.045 56.727 319.018 56.652 319.018 C 56.588 319.018 56.524 319.045 56.457 319.099 C 56.432 319.117 56.415 319.125 56.407 319.125 C 56.387 319.125 56.369 319.115 56.357 319.093 L 56.038 318.711 C 56.029 318.703 56.025 318.689 56.025 318.668 C 56.025 318.643 56.034 318.622 56.05 318.605 L 56.895 317.672 C 56.912 317.648 56.908 317.634 56.883 317.634 L 55.788 317.634 C 55.766 317.634 55.75 317.627 55.738 317.613 C 55.725 317.599 55.72 317.58 55.725 317.56 L 55.8 316.959 C 55.804 316.938 55.814 316.92 55.828 316.906 C 55.843 316.891 55.861 316.884 55.881 316.884 L 57.972 316.884 C 57.993 316.884 58.01 316.891 58.022 316.906 C 58.035 316.92 58.039 316.938 58.035 316.959 L 57.96 317.585 Z"/><path fill="#1A1A1A" d="M29.99976,320.48181c2.15778,0,3.91418-1.75635,3.91418-3.91412s-1.75641-3.91418-3.91418-3.91418 s-3.91412,1.75641-3.91412,3.91418S27.84199,320.48181,29.99976,320.48181z"/><path fill="#222223" d="M29.99976,157.83591c2.15778,0,3.91418-1.75641,3.91418-3.91418s-1.75641-3.91412-3.91418-3.91412 s-3.91412,1.75635-3.91412,3.91412S27.84199,157.83591,29.99976,157.83591z"/><circle fill="#262626" cx="15.21397" cy="90.34237" r="13.30733"/><circle fill="#1D1D1E" cx="15.21398" cy="252.98831" r="13.30733"/><path fill="#272727" d="M29.99976,76.51295c2.15778,0,3.91418-1.75641,3.91418-3.91418c0-2.15778-1.75641-3.91418-3.91418-3.91418 s-3.91412,1.75641-3.91412,3.91418C26.08564,74.75655,27.84199,76.51295,29.99976,76.51295z"/><path fill="#1E1E1F" d="M29.99976,239.15886c2.15778,0,3.91418-1.75636,3.91418-3.91414s-1.75641-3.91418-3.91418-3.91418 s-3.91412,1.75635-3.91412,3.91418S27.84199,239.15886,29.99976,239.15886z"/><circle fill="#222222" cx="15.21396" cy="171.66533" r="13.30733"/><path fill="#1E1E1F" d="M48.00714,239.23503c0.11719,0,0.21399-0.04077,0.29138-0.12225 c0.07745-0.08154,0.12427-0.18848,0.14062-0.32196l0.25671-2.07832c0.00409-0.01733,0.0061-0.04175,0.0061-0.07538 c0-0.1131-0.02954-0.20276-0.08759-0.26898c-0.05811-0.0672-0.13757-0.10083-0.23743-0.10083 c-0.11304,0-0.20782,0.04071-0.28522,0.12225c-0.07745,0.08148-0.12433,0.18945-0.14062,0.32294l-0.25671,2.07832 c-0.00409,0.0163-0.0061,0.04077-0.0061,0.0744c0,0.1131,0.0285,0.2027,0.08759,0.26892 c0.05811,0.06726,0.1355,0.10089,0.23126,0.10089H48.00714z"/><path fill="#1A1A1A" d="M48.38922,317.59064c-0.1131,0-0.20782,0.04077-0.28528,0.12225 c-0.07745,0.08154-0.12427,0.18951-0.14056,0.323l-0.25677,2.07831c-0.00409,0.0163-0.0061,0.04071-0.0061,0.07434 c0,0.1131,0.0285,0.20276,0.08765,0.26898c0.05804,0.06726,0.1355,0.10083,0.23126,0.10083 c0.11713,0,0.21393-0.04071,0.29132-0.12225c0.07745-0.08148,0.12433-0.18848,0.14062-0.3219l0.25671-2.07831 c0.00409-0.01733,0.0061-0.04181,0.0061-0.07544c0-0.11304-0.02954-0.2027-0.08759-0.26892 C48.56847,317.62427,48.48901,317.59064,48.38922,317.59064z"/><path fill="#222223" d="M48.94037,157.91269c0.11713,0,0.21393-0.04077,0.29138-0.12225 c0.07739-0.08148,0.12427-0.18848,0.14056-0.32196l0.25677-2.07831c0.00403-0.01727,0.0061-0.04175,0.0061-0.07538 c0-0.1131-0.02954-0.20276-0.08765-0.26898c-0.05804-0.0672-0.13751-0.10083-0.23737-0.10083 c-0.1131,0-0.20782,0.04077-0.28528,0.12225c-0.07739,0.08148-0.12427,0.18951-0.14056,0.32294l-0.25671,2.07831 c-0.00409,0.0163-0.00616,0.04077-0.00616,0.0744c0,0.1131,0.02856,0.20276,0.08765,0.26898 C48.76714,157.87906,48.8446,157.91269,48.94037,157.91269z"/></g></svg>