<?xml version="1.0" encoding="utf-8"?>
<svg version="1.0" id="uuid-a425cf58-f0bc-4f33-8eb0-b6702cf03e57" xmlns="http://www.w3.org/2000/svg" x="0px" y="0px" width="60px" height="379.99945px" viewBox="0 0 60 379.99945" enable-background="new 0 0 60 379.99945" xmlns:bx="https://boxy-svg.com"><defs><bx:export><bx:file format="svg"/></bx:export></defs><linearGradient id="rect4_00000072271651952126215310000015364307354584672161_" gradientUnits="userSpaceOnUse" x1="29.95437" y1="379.88983" x2="29.95437" y2="-0.11017" gradientTransform="matrix(1 0 0 -1 0.04563 379.77576)"><stop offset="0" style="stop-color:#EBCB86"/><stop offset="1" style="stop-color:#C1924F"/></linearGradient><rect id="rect4" y="-0.11407" fill="url(#rect4_00000072271651952126215310000015364307354584672161_)" width="60" height="380"/><g id="g20"><path id="path4" fill="#272728" d="M10.3949,65.05559c1.13519,0,2.27039-0.43323,3.13654-1.29919 c1.7323-1.73242,1.7323-4.54096,0-6.27314c-0.86615-0.86621-2.00134-1.2995-3.13654-1.2995 c-1.13525,0-2.27045,0.43329-3.1366,1.2995c-1.7323,1.73219-1.7323,4.54072,0,6.27314 C8.12445,64.62237,9.25964,65.05559,10.3949,65.05559z M8.14789,62.19181l0.0871-0.30261 c0.51501-1.78894,1.96729-3.13885,3.78992-3.52192c0.28064-0.06012,0.55878,0.12024,0.61786,0.40344 c0.05908,0.28119-0.12122,0.55829-0.40295,0.61737c-1.4436,0.30359-2.5943,1.37231-3.00232,2.79047l-0.0871,0.30255 c-0.06573,0.22821-0.2746,0.37695-0.50128,0.37695c-0.04736,0-0.09625-0.0061-0.1441-0.02039 C8.22786,62.75821,8.06844,62.46891,8.14789,62.19181z"/><path id="path5" fill="#1F1F1F" d="M44.77264,219.17805c-2.44989,0-4.43585,1.9859-4.43585,4.43579 c0,2.44991,1.98596,4.43581,4.43585,4.43581s4.43579-1.98584,4.43579-4.43581 C49.20844,221.16389,47.22242,219.17805,44.77264,219.17805z M44.36493,223.85054l-1.84167,1.06329 c-0.18219,0.10516-0.40991-0.02631-0.40991-0.23663v-2.12665c0-0.21033,0.22772-0.3418,0.40991-0.23663l1.84167,1.06329 C44.54712,223.48238,44.54712,223.74538,44.36493,223.85054z M47.19299,223.85054l-1.84167,1.06329 c-0.18219,0.10516-0.40991-0.02631-0.40991-0.23663v-2.12665c0-0.21033,0.22772-0.3418,0.40991-0.23663l1.84167,1.06329 C47.37518,223.48238,47.37518,223.74538,47.19299,223.85054z"/><path id="path6" fill="#1F1F1F" d="M19.61371,223.61385c0-2.44989-1.98596-4.43579-4.43579-4.43579 s-4.43579,1.9859-4.43579,4.43579c0,2.44991,1.98596,4.43581,4.43579,4.43581S19.61371,226.06381,19.61371,223.61385z M12.20819,223.61409c0-0.19946,0.16144-0.3609,0.36096-0.3609h3.28412v-0.80432c0-0.12207,0.13214-0.19836,0.23792-0.13733 l1.95709,1.13031c0.13245,0.07648,0.13245,0.26776-0.00006,0.34424l-1.95703,1.13013 c-0.10577,0.06104-0.23792-0.01526-0.23792-0.13733v-0.80383h-3.28412C12.36963,223.97505,12.20819,223.81361,12.20819,223.61409z"/><path id="path7" fill="#1D1D1E" d="M44.72711,251.78656c-2.44983,0-4.43579,1.9859-4.43579,4.43579 c0,2.44965,1.98596,4.43579,4.43579,4.43579s4.43579-1.98615,4.43579-4.43579 C49.1629,253.77246,47.17688,251.78656,44.72711,251.78656z M45.71924,256.46936l-1.80566,1.04248 c-0.19019,0.1098-0.42792-0.02747-0.42792-0.24707v-2.08496c0-0.2196,0.23773-0.35687,0.42792-0.24707l1.80566,1.04248 C45.90936,256.08502,45.90936,256.35956,45.71924,256.46936z"/><path id="path8" fill="#242425" d="M49.58234,109.61699c-1.13519,0-2.27039,0.43298-3.13654,1.29919 c-1.7323,1.73225-1.7323,4.54078,0,6.2732c0.86615,0.86622,2.00134,1.29919,3.13654,1.29919s2.27045-0.43298,3.1366-1.29919 c1.73224-1.73242,1.73224-4.54095,0-6.2732C51.85279,110.04996,50.71754,109.61699,49.58234,109.61699z M51.14899,114.32787 c-0.03156,0.11792-0.17896,0.15741-0.26532,0.07104l-0.56842-0.56848l-2.3222,2.32233c-0.14105,0.14111-0.36932,0.14111-0.51038,0 c-0.14111-0.14111-0.14111-0.36932,0-0.51044l2.3222-2.32227l-0.56879-0.56879c-0.08624-0.08618-0.04675-0.23364,0.07117-0.26526 l2.18311-0.58467c0.14777-0.03943,0.28302,0.09576,0.24341,0.24354l-0.58478,2.18298L51.14899,114.32787z"/><path id="path9" fill="#1D1D1E" d="M15.20081,260.65814c2.44983,0,4.43579-1.98615,4.43579-4.43579 c0-2.44989-1.98596-4.43579-4.43579-4.43579s-4.43579,1.9859-4.43579,4.43579 C10.76502,258.672,12.75104,260.65814,15.20081,260.65814z M15.20105,253.64539c1.46765,0,2.6615,1.17792,2.6615,2.62537 c0,0.60071-0.21429,1.16455-0.58929,1.62769l0.32166,0.65601c0.04297,0.0874-0.0249,0.18854-0.12207,0.18195l-1.96826-0.13336 c-0.13501-0.00916-0.20953-0.16101-0.13409-0.27338l1.09943-1.63806c0.05426-0.08087,0.17572-0.07269,0.21869,0.01483 l0.27167,0.55414c0.17529-0.29944,0.27631-0.63605,0.27631-0.98981c0-1.10272-0.91321-1.99945-2.03552-1.99945 s-2.03552,0.89673-2.03552,1.99945c0,0.17297-0.13995,0.31299-0.31299,0.31299c-0.17297,0-0.31293-0.14001-0.31293-0.31299 c0-1.44745,1.19379-2.62537,2.66144-2.62537H15.20105z"/><path id="path10" fill="#272728" d="M49.57788,65.03062c1.13513,0,2.27039-0.43323,3.13654-1.29919 c1.73224-1.73242,1.73224-4.54096,0-6.27314c-0.86615-0.86621-2.0014-1.29944-3.13654-1.29944 c-1.13525,0-2.27045,0.43323-3.1366,1.29944c-1.7323,1.73219-1.7323,4.54072,0,6.27314 C47.30743,64.5974,48.44262,65.03062,49.57788,65.03062z M47.4704,58.48446c0.20477-0.20477,0.5343-0.2038,0.7381-0.00208 l3.48322,3.45979c0.20422,0.20276,0.20526,0.53284,0.00256,0.73761c-0.10242,0.10291-0.23639,0.15387-0.37036,0.15387 c-0.13293,0-0.26587-0.05096-0.3678-0.15179l-3.48322-3.45984C47.26868,59.01931,47.26764,58.68924,47.4704,58.48446z"/><path id="path11" fill="#252526" d="M31.21466,99.24703c0.16809-0.15588,0.25269-0.37189,0.25269-0.64594 c0-0.28015-0.07947-0.50018-0.2384-0.66016s-0.4024-0.24042-0.73151-0.24042h-0.98212v1.78082h0.98621 C30.80817,99.48134,31.04657,99.40291,31.21466,99.24703z"/><path id="path12" fill="#222222" d="M49.75922,162.74939c-1.13519,0-2.27045,0.43329-3.1366,1.29926 c-1.73224,1.73242-1.73224,4.54095,0,6.27313c0.86615,0.86621,2.0014,1.29944,3.1366,1.29944s2.27039-0.43323,3.13654-1.29944 c1.7323-1.73218,1.7323-4.54071,0-6.27313C52.02961,163.18268,50.89442,162.74939,49.75922,162.74939z M51.66724,169.38409 l-2.18311-0.58466c-0.11792-0.03156-0.15747-0.17902-0.07117-0.26538l0.56879-0.56873l-2.32227-2.32208 c-0.14105-0.14105-0.14105-0.36938,0-0.5105c0.14111-0.14099,0.36938-0.14099,0.51044,0l2.3222,2.32214l0.56842-0.5683 c0.0863-0.08636,0.23376-0.04675,0.26532,0.07117l0.58478,2.18298C51.9502,169.28845,51.81501,169.42371,51.66724,169.38409z"/><path id="path13" fill="#222223" d="M23.92883,150.96664h-0.98212v1.78084h0.98621c0.30664,0,0.54504-0.07843,0.71313-0.23431 s0.25269-0.37189,0.25269-0.64594c0-0.28017-0.07947-0.5002-0.2384-0.66017S24.25794,150.96664,23.92883,150.96664z"/><polygon id="polygon13" fill="#202020" points="26.62048,206.86328 28.10382,206.86328 27.35809,204.64233 &#9;"/><g id="g19"><path id="path14" fill="#29292A" d="M47.44617,24.51731c0.30548,0,0.55292-0.09778,0.74231-0.29224 c0.18835-0.19452,0.28308-0.45312,0.28308-0.77588v-1.83484c0-0.32281-0.09265-0.58246-0.27899-0.77997 s-0.43579-0.29633-0.7464-0.29633c-0.30646,0-0.55286,0.09882-0.73816,0.29633c-0.18738,0.19751-0.28003,0.45715-0.28003,0.77997 v1.83484c0,0.32275,0.09265,0.58136,0.28003,0.77588C46.89331,24.41953,47.13971,24.51731,47.44617,24.51731z"/><linearGradient id="path15_00000178206783850511212280000010956832399199552942_" gradientUnits="userSpaceOnUse" x1="30" y1="380.00391" x2="30" y2="0.0039" gradientTransform="matrix(1 0 0 -1 0 379.88983)"><stop offset="0" style="stop-color:#2A2A2B"/><stop offset="1" style="stop-color:#171717"/></linearGradient><path id="path15" fill="url(#path15_00000178206783850511212280000010956832399199552942_)" d="M 59.972 365.1 L 59.972 13.489 L 59.972 -0.114 L 0 -0.114 L 0 14.672 L 0.001 14.672 L 0.001 366.283 L 0.029 366.283 L 0.029 379.886 L 60 379.886 L 60 365.1 L 59.972 365.1 Z M 43.666 201.345 L 42.564 202.448 L 41.487 198.428 L 45.506 199.505 L 44.404 200.608 L 57.123 213.327 L 57.123 269.762 L 53.334 273.505 L 52.597 272.765 L 56.08 269.328 L 56.08 213.759 L 43.666 201.345 Z M 38.184 152.381 L 38.184 153.338 L 35.836 153.338 L 35.836 154.928 L 38.591 154.928 L 38.591 155.91 L 34.614 155.91 L 34.614 149.976 L 38.583 149.976 L 38.583 150.967 L 35.836 150.967 L 35.836 152.381 L 38.184 152.381 Z M 35.219 203.143 L 36.442 203.143 L 36.442 208.094 L 39.037 208.094 L 39.037 209.076 L 35.219 209.076 L 35.219 203.143 Z M 38.998 102.644 L 38.998 96.71 L 42.967 96.71 L 42.967 97.701 L 40.221 97.701 L 40.221 99.115 L 42.568 99.115 L 42.568 100.072 L 40.221 100.072 L 40.221 101.662 L 42.976 101.662 L 42.976 102.644 L 38.998 102.644 Z M 44.773 229.093 C 41.751 229.093 39.294 226.635 39.294 223.614 C 39.294 220.593 41.751 218.135 44.773 218.135 C 47.794 218.135 50.252 220.593 50.252 223.614 C 50.252 226.635 47.794 229.093 44.773 229.093 Z M 50.206 256.222 C 50.206 259.244 47.748 261.701 44.727 261.701 C 41.706 261.701 39.248 259.244 39.248 256.222 C 39.248 253.201 41.706 250.743 44.727 250.743 C 47.748 250.743 50.206 253.201 50.206 256.222 Z M 53.633 171.059 C 52.599 172.094 51.223 172.664 49.759 172.664 C 48.462 172.664 47.248 172.194 46.265 171.372 L 44.424 173.213 L 45.526 174.316 L 41.507 175.392 L 42.584 171.373 L 43.686 172.475 L 45.533 170.628 C 43.782 168.479 43.883 165.313 45.885 163.311 C 46.92 162.276 48.296 161.706 49.759 161.706 C 51.223 161.706 52.599 162.276 53.633 163.311 C 54.668 164.346 55.238 165.722 55.238 167.185 C 55.238 168.649 54.668 170.025 53.633 171.059 Z M 53.457 117.927 C 52.422 118.962 51.046 119.532 49.582 119.532 C 48.283 119.532 47.068 119.061 46.084 118.236 L 44.24 120.08 L 45.343 121.183 L 41.323 122.26 L 42.4 118.241 L 43.502 119.343 L 45.353 117.492 C 43.605 115.342 43.707 112.179 45.708 110.179 C 46.743 109.144 48.119 108.574 49.582 108.574 C 51.046 108.574 52.422 109.144 53.457 110.179 C 55.593 112.315 55.593 115.791 53.457 117.927 Z M 53.452 64.469 C 52.417 65.504 51.041 66.074 49.578 66.074 C 48.293 66.074 47.09 65.612 46.112 64.804 L 44.263 66.653 L 45.365 67.756 L 41.346 68.833 L 42.423 64.813 L 43.525 65.916 L 45.373 64.067 C 44.562 63.088 44.099 61.883 44.099 60.595 C 44.099 59.131 44.669 57.756 45.704 56.721 C 46.738 55.686 48.114 55.116 49.578 55.116 C 51.041 55.116 52.417 55.686 53.452 56.721 C 55.588 58.857 55.588 62.333 53.452 64.469 Z M 37.079 96.71 L 38.44 96.71 L 36.374 102.644 L 35.098 102.644 L 33.04 96.71 L 34.397 96.71 L 35.734 101.173 L 37.079 96.71 Z M 30.932 152.042 C 31.127 152.173 31.412 152.295 31.79 152.409 C 32.486 152.618 32.992 152.878 33.31 153.188 C 33.628 153.497 33.787 153.883 33.787 154.345 C 33.787 154.858 33.592 155.261 33.204 155.553 C 32.816 155.846 32.292 155.991 31.635 155.991 C 31.179 155.991 30.763 155.908 30.388 155.741 C 30.013 155.574 29.727 155.344 29.53 155.054 C 29.334 154.764 29.235 154.426 29.235 154.043 L 30.461 154.043 C 30.461 154.698 30.852 155.026 31.635 155.026 C 31.925 155.026 32.152 154.966 32.315 154.848 C 32.478 154.73 32.56 154.565 32.56 154.353 C 32.56 154.122 32.478 153.945 32.315 153.821 C 32.152 153.698 31.859 153.568 31.435 153.43 C 31.011 153.293 30.676 153.158 30.429 153.025 C 29.755 152.661 29.418 152.17 29.418 151.553 C 29.418 151.233 29.509 150.947 29.689 150.696 C 29.869 150.444 30.129 150.248 30.467 150.107 C 30.806 149.965 31.186 149.895 31.606 149.895 C 32.03 149.895 32.408 149.971 32.739 150.125 C 33.07 150.279 33.328 150.495 33.512 150.775 C 33.695 151.055 33.787 151.373 33.787 151.729 L 32.564 151.729 C 32.564 151.457 32.478 151.246 32.307 151.095 C 32.136 150.944 31.896 150.869 31.586 150.869 C 31.288 150.869 31.055 150.932 30.889 151.058 C 30.723 151.185 30.641 151.351 30.641 151.558 C 30.641 151.75 30.737 151.912 30.932 152.042 Z M 24.244 101.476 C 24.431 101.654 24.687 101.743 25.016 101.743 C 25.704 101.743 26.052 101.381 26.064 100.659 L 26.064 96.71 L 27.29 96.71 L 27.29 100.618 C 27.29 101.267 27.088 101.781 26.681 102.159 C 26.275 102.537 25.72 102.725 25.016 102.725 C 24.324 102.725 23.774 102.542 23.366 102.175 C 22.958 101.808 22.751 101.304 22.743 100.663 L 22.743 96.71 L 23.965 96.71 L 23.965 100.626 C 23.965 101.015 24.058 101.298 24.244 101.476 Z M 32.914 102.587 L 32.914 102.644 L 31.602 102.644 L 30.489 100.472 L 29.515 100.472 L 29.515 102.644 L 28.293 102.644 L 28.293 96.71 L 30.497 96.71 C 31.198 96.71 31.739 96.866 32.119 97.179 C 32.499 97.492 32.69 97.933 32.69 98.503 C 32.69 98.908 32.602 99.246 32.427 99.516 C 32.252 99.786 31.986 100.002 31.63 100.162 L 32.914 102.587 Z M 28.35 149.976 L 28.35 155.91 L 27.128 155.91 L 27.128 149.976 L 28.35 149.976 Z M 23.929 149.976 C 24.63 149.976 25.171 150.132 25.551 150.445 C 25.931 150.758 26.121 151.199 26.121 151.769 C 26.121 152.174 26.034 152.512 25.858 152.782 C 25.683 153.052 25.417 153.268 25.062 153.428 L 26.345 155.853 L 26.345 155.91 L 25.033 155.91 L 23.921 153.738 L 22.947 153.738 L 22.947 155.91 L 21.724 155.91 L 21.724 149.976 L 23.929 149.976 Z M 25.157 203.143 L 25.157 204.133 L 22.517 204.133 L 22.517 205.665 L 24.864 205.665 L 24.864 206.651 L 22.517 206.651 L 22.517 209.076 L 21.294 209.076 L 21.294 203.143 L 25.157 203.143 Z M 26.792 203.143 L 27.925 203.143 L 30.145 209.076 L 28.846 209.076 L 28.434 207.854 L 26.29 207.854 L 25.883 209.076 L 24.583 209.076 L 26.792 203.143 Z M 21.279 97.179 C 21.698 97.546 21.94 98.06 22.005 98.723 L 20.782 98.723 C 20.753 98.34 20.646 98.062 20.462 97.89 C 20.279 97.718 20 97.631 19.625 97.631 C 19.217 97.631 18.913 97.777 18.71 98.069 C 18.507 98.362 18.403 98.814 18.398 99.428 L 18.398 99.877 C 18.398 100.517 18.495 100.986 18.69 101.283 C 18.884 101.579 19.19 101.727 19.609 101.727 C 19.987 101.727 20.268 101.64 20.454 101.468 C 20.641 101.296 20.747 101.029 20.774 100.667 L 21.997 100.667 C 21.951 101.306 21.715 101.808 21.29 102.175 C 20.865 102.542 20.304 102.725 19.609 102.725 C 18.848 102.725 18.25 102.469 17.814 101.957 C 17.378 101.445 17.16 100.742 17.16 99.848 L 17.16 99.485 C 17.16 98.915 17.26 98.413 17.461 97.978 C 17.662 97.543 17.949 97.209 18.323 96.977 C 18.697 96.745 19.131 96.629 19.625 96.629 C 20.31 96.629 20.861 96.812 21.279 97.179 Z M 20.657 223.614 C 20.657 226.635 18.199 229.093 15.178 229.093 C 12.157 229.093 9.699 226.635 9.699 223.614 C 9.699 220.593 12.157 218.135 15.178 218.135 C 18.199 218.135 20.657 220.593 20.657 223.614 Z M 6.521 56.746 C 7.555 55.711 8.931 55.141 10.395 55.141 C 11.858 55.141 13.234 55.711 14.269 56.746 C 16.271 58.747 16.372 61.912 14.622 64.062 L 16.47 65.91 L 17.573 64.808 L 18.649 68.827 L 14.63 67.75 L 15.733 66.648 L 13.89 64.805 C 12.907 65.629 11.693 66.099 10.395 66.099 C 8.931 66.099 7.555 65.529 6.521 64.494 C 5.486 63.459 4.916 62.083 4.916 60.62 C 4.916 59.156 5.486 57.78 6.521 56.746 Z M 2.839 160.129 L 15.579 147.388 L 14.477 146.286 L 18.496 145.209 L 17.419 149.228 L 16.317 148.126 L 3.882 160.561 L 3.882 269.257 L 7.078 272.53 L 6.338 273.265 L 2.839 269.687 L 2.839 160.129 Z M 14.077 317.832 L 10.882 316.673 C 10.118 316.396 9.605 315.664 9.605 314.851 L 9.605 313.148 C 6.729 312.907 4.46 310.441 4.46 307.439 C 4.46 304.278 6.974 301.707 10.064 301.707 C 13.154 301.707 15.669 304.278 15.669 307.439 C 15.669 310.441 13.399 312.907 10.524 313.148 L 10.524 314.851 C 10.524 315.278 10.794 315.663 11.195 315.809 L 14.391 316.968 C 15.155 317.247 15.668 317.979 15.668 318.791 L 15.66 319.346 L 14.741 319.346 L 14.749 318.791 C 14.749 318.364 14.479 317.978 14.077 317.832 Z M 15.201 261.701 C 12.18 261.701 9.722 259.244 9.722 256.222 C 9.722 253.201 12.18 250.743 15.201 250.743 C 18.222 250.743 20.68 253.201 20.68 256.222 C 20.68 259.244 18.222 261.701 15.201 261.701 Z M 30.7 203.143 L 31.922 203.143 L 31.922 208.094 L 34.518 208.094 L 34.518 209.076 L 30.7 209.076 C 30.7 209.076 30.7 203.143 30.7 203.143 Z M 44.773 344.4 C 37.423 344.4 31.465 338.442 31.465 331.092 C 31.465 323.751 37.41 317.8 44.748 317.786 C 44.972 317.464 45.292 317.21 45.676 317.07 L 48.871 315.911 C 49.273 315.765 49.543 315.38 49.543 314.953 L 49.543 313.15 C 46.647 312.931 44.353 310.457 44.353 307.439 C 44.353 304.278 46.868 301.707 49.958 301.707 C 53.048 301.707 55.562 304.278 55.562 307.439 C 55.562 310.426 53.316 312.883 50.462 313.145 L 50.462 314.953 C 50.462 315.766 49.949 316.498 49.184 316.775 L 46.188 317.862 C 52.872 318.569 58.08 324.221 58.08 331.092 C 58.08 338.442 52.122 344.4 44.773 344.4 Z"/><path id="path16" fill="#181818" d="M8.15131,357.75351H7.14985c-0.02856,0-0.04181,0.01324-0.04181,0.04175l-0.17523,1.38556 c0,0.02747,0.01123,0.04175,0.03363,0.04175H7.9842c0.27301,0,0.48798-0.07642,0.64691-0.23022 c0.15894-0.15283,0.23743-0.36267,0.23743-0.62964c0-0.19458-0.06219-0.34534-0.1875-0.45129 C8.55573,357.80649,8.37947,357.75351,8.15131,357.75351z"/><path id="path17" fill="#181818" d="M8.38458,355.40823H7.43304c-0.01123,0-0.02039,0.00409-0.02856,0.01227 c-0.00812,0.00812-0.01324,0.01831-0.01324,0.02954l-0.1579,1.302c-0.01117,0.02747,0,0.04175,0.03363,0.04175h0.9505 c0.25067,0,0.45337-0.06012,0.60925-0.17932c0.15588-0.12018,0.24756-0.28827,0.27612-0.50531l0.00812-0.09985 c0-0.18945-0.06213-0.33722-0.18744-0.44318C8.79821,355.46121,8.61889,355.40823,8.38458,355.40823z"/><path id="path18" fill="#181818" d="M18.19952,355.83817c-0.01117,0.00305-0.01935,0.01221-0.02545,0.02856l-1.01776,2.4787 c-0.0061,0.03357,0.00305,0.0509,0.02441,0.0509h1.42737c0.0285,0,0.04175-0.01733,0.04175-0.0509l-0.42584-2.4787 C18.21887,355.84531,18.21076,355.83511,18.19952,355.83817z"/><path id="path19" fill="#181818" d="M40.32446,355.34103c-0.29547,0-0.54608,0.09882-0.75189,0.29645 s-0.32806,0.4574-0.36676,0.7804l-0.22516,1.83582c-0.0061,0.03973-0.00812,0.09784-0.00812,0.17523 c0,0.27307,0.07739,0.49005,0.23328,0.651c0.15588,0.16199,0.36676,0.24249,0.6347,0.24249 c0.30054,0,0.55219-0.09778,0.75494-0.29242c0.2027-0.19458,0.32703-0.45331,0.37183-0.77631l0.22516-1.83582 c0.00513-0.03876,0.00818-0.0968,0.00818-0.17523c0-0.27814-0.07849-0.49817-0.23334-0.65918 C40.8114,355.42252,40.59643,355.34103,40.32446,355.34103z"/></g></g><path id="path1" fill="#4D4D4D" d="M9.98911,302.72113c-2.58362,0-4.68536,2.15881-4.68536,4.81274s2.10175,4.81378,4.68536,4.81378 c2.58368,0,4.68542-2.15985,4.68542-4.81378S12.57279,302.72113,9.98911,302.72113z M10.60038,310.50079H9.37784v-5.93341h1.22253 v5.93341H10.60038z"/><g id="g2" transform="translate(45.187368,302.44837)"><path id="path1-4" fill="#4D4D4D" d="M4.69158,0.25571c-2.58362,0-4.68536,2.15881-4.68536,4.81274 s2.10175,4.81378,4.68536,4.81378c2.58313,0,4.68488-2.15985,4.68488-4.81378S7.27471,0.25571,4.69158,0.25571z M7.21795,5.20316 c0,0.58374-0.10339,1.09619-0.30969,1.53632c-0.2063,0.44013-0.50177,0.77936-0.88636,1.0188 C5.63732,7.99766,5.1967,8.11686,4.69951,8.11686c-0.49152,0-0.93066-0.11816-1.31622-0.35455 C2.99767,7.52598,2.69866,7.18876,2.48675,6.74967s-0.3194-0.94342-0.32196-1.51392v-0.2934 c0-0.5838,0.10547-1.09827,0.31586-1.54248C2.69103,2.95573,2.98852,2.61442,3.3731,2.37705s0.82367-0.35657,1.3183-0.35657 s0.93372,0.1192,1.3183,0.35657s0.68207,0.57867,0.89246,1.02283c0.21039,0.44421,0.3158,0.95667,0.3158,1.53839v0.26489H7.21795z"/><path id="path2" fill="#4D4D4D" d="M4.6914,2.89421c-0.4101,0-0.72693,0.15997-0.94952,0.47882 c-0.2226,0.31891-0.3357,0.78754-0.33826,1.40387v0.28937c0,0.60614,0.11157,1.07581,0.33417,1.40997 S4.2813,6.97753,4.69952,6.97753c0.4101,0,0.7254-0.16101,0.94543-0.48291c0.22009-0.32196,0.3316-0.79163,0.33417-1.40796V4.79729 c0-0.62244-0.11157-1.09515-0.33417-1.41815C5.42236,3.0562,5.10449,2.89421,4.6914,2.89421z"/></g></svg>